<?xml version="1.0" encoding="utf-8"?>
<!-- Generator: Adobe Illustrator 28.0.0, SVG Export Plug-In . SVG Version: 6.00 Build 0)  -->
<svg version="1.1" id="Capa_1" xmlns="http://www.w3.org/2000/svg" xmlns:xlink="http://www.w3.org/1999/xlink" x="0px" y="0px"
	 viewBox="0 0 438.6 91.4" style="enable-background:new 0 0 438.6 91.4;" xml:space="preserve">
<style type="text/css">
	.st0{fill:#FFFFFF;}
</style>
<g>
	<g>
		<path class="st0" d="M62.2,49.1c3.8-0.1,4.9-2.6,3.6-4.4c-5.1-7.2-5.8-7.8-5-12c1-4.1-2.9-16.1-3-16.2C79.3,5.3,16.7-8.5,8.6,6.8
			c-18.7,10.6-1.4,52.4,1,57.3S7,73.3,7,73.3c7.2,17.6,35.7,10.8,35.7,10.8c-2.4-4-0.9-6.3,0.3-7.2c4.1-3,0-5.8,11.9-6.6
			c7.4-0.5,7.9-4.9,7.2-6.3c-0.7-1.3-0.9-3.4,0.3-4.3c3.3-2.4,0-4,0-4.3C66.7,53.6,61.2,49.1,62.2,49.1z M31.4,30.6
			c-0.2,0.4-0.5,0.9-0.8,1.3l0.6,4c-0.9,0.8-1.9,1.4-2.9,2l-3.1-2.1c-1.4,0.4-2.9,0.5-4.4,0.2l-3,2.4c-0.5-0.2-1-0.4-1.5-0.7
			c-0.5-0.3-1-0.6-1.4-0.9l0.3-3.9c-1-1.1-1.8-2.4-2.3-3.8l-3.5-1.4c-0.2-1.2-0.2-2.3,0-3.5l3.6-1.8c0.2-0.5,0.4-0.9,0.6-1.4
			c0.3-0.7,0.8-1.3,1.2-1.8L14,15.4c1-0.8,2.2-1.5,3.4-2l3.4,2.3c0.9-0.1,1.9-0.2,2.8-0.1l3.1-2.5c0.6,0.2,1.3,0.5,1.9,0.8
			c0.6,0.3,1.2,0.7,1.7,1.1l-0.3,4c0.6,0.7,1.1,1.5,1.5,2.4l3.8,1.5c0.3,1.3,0.4,2.6,0.3,3.9l-3.5,1.7C32,29.3,31.7,30,31.4,30.6z
			 M48.7,39.3c-0.1,0.5-0.2,0.9-0.4,1.4c-0.1,0.3-0.3,0.6-0.4,0.9l0.7,2.5c-0.5,0.6-1.1,1.1-1.8,1.5l-2.2-1.1
			c-0.9,0.4-1.9,0.6-2.9,0.5L40,46.9c-0.4-0.1-0.7-0.2-1-0.3c-0.3-0.1-0.7-0.3-1-0.5l-0.1-2.5c-0.8-0.6-1.4-1.4-1.8-2.3l-2.4-0.6
			c-0.2-0.7-0.3-1.5-0.3-2.3l2.2-1.4c0.1-0.3,0.2-0.6,0.3-0.9c0.2-0.5,0.4-0.9,0.6-1.3l-0.7-2.4c0.6-0.6,1.3-1.2,2.1-1.6l2.4,1.2
			c0.6-0.2,1.2-0.3,1.8-0.3l1.8-1.9c0.4,0.1,0.9,0.2,1.3,0.4c0.4,0.2,0.8,0.4,1.2,0.6l0.1,2.6c0.5,0.4,0.9,0.9,1.2,1.4l2.6,0.7
			c0.3,0.8,0.5,1.7,0.5,2.5L48.7,39.3z M22.3,22.3c-1.9,0-3.5,1.6-3.5,3.5c0,1.9,1.6,3.5,3.5,3.5s3.5-1.6,3.5-3.5
			C25.8,23.8,24.3,22.3,22.3,22.3z M41.8,36c-1.3,0.2-2.2,1.3-2,2.6c0.2,1.3,1.3,2.2,2.6,2c1.3-0.2,2.2-1.3,2-2.6
			C44.2,36.8,43,35.9,41.8,36z"/>
	</g>
	<g>
		<g>
			<path class="st0" d="M413.1,33.5c-0.3,0-0.6,0.3-0.6,0.6c0,1.3,0,1.8,0,5.1c0,0.2,0.1,0.4,0.3,0.4s0.4,0,0.5-0.1
				c0.4-0.6,0.9-1,1.5-1.4c0.1-0.1,0.2-0.1,0.3-0.1h18.4c0.3,0,0.6,0.3,0.6,0.6V40c0,0.1,0,0.2-0.1,0.3l-26.6,49.2
				c-0.1,0.2-0.1,0.4,0,0.6c0.1,0.2,0.3,0.3,0.5,0.3c2.2,0,3.9,0,5.9,0c0.2,0,0.4-0.1,0.4-0.3c0.1-0.2,0-0.4-0.2-0.5
				c-0.6-0.4-1-0.8-1.1-0.9l25.6-47.2c0-0.1,0.1-0.2,0.1-0.3v-7.1c0-0.3-0.3-0.6-0.6-0.6H413.1z"/>
		</g>
		<path class="st0" d="M156.1,70.3c-0.1-0.1-0.1-0.2-0.1-0.3V43.4c0-9.6-11.3-14.4-19.9-8c-1.2,0.9-2,1.9-2.8,3
			c-0.3-0.7-0.6-1.6-1.2-2.3c-3.5-4.6-10.6-5.1-16.6,0c-1.2,0.9-1.9,2-2.8,3.2v-5.2c0-0.2-0.1-0.3-0.2-0.4c-0.1-0.1-0.3-0.2-0.4-0.2
			c-2.3,0-3.2,0-5.2,0c-0.2,0-0.4,0.1-0.4,0.3s0,0.4,0.1,0.5c0.6,0.4,1,0.9,1.4,1.5c0.1,0.1,0.1,0.2,0.1,0.3V70c0,0.1,0,0.2-0.1,0.3
			c-0.6,0.8-1.3,1.6-2.1,2.2c-0.2,0.1-0.2,0.3-0.2,0.5c0.1,0.2,0.2,0.3,0.4,0.3c2.7,0,5.7,0,8.5,0c0.2,0,0.4-0.1,0.4-0.3
			s0-0.4-0.2-0.5c-0.8-0.6-1.6-1.4-2.1-2.2c-0.1-0.1-0.1-0.2-0.1-0.3V47.7c0-0.1,0-0.1,0-0.2c5.2-12.8,17.1-13.8,17.1-4.1V70
			c0,0.1,0,0.2-0.1,0.3c-0.6,0.8-1.3,1.6-2.1,2.2c-0.2,0.1-0.2,0.3-0.2,0.5c0.1,0.2,0.2,0.3,0.4,0.3c2.7,0,5.7,0,8.5,0
			c0.2,0,0.4-0.1,0.4-0.3c0.1-0.2,0-0.4-0.2-0.5c-0.8-0.6-1.6-1.4-2.1-2.2c-0.1-0.1-0.1-0.2-0.1-0.3V44.5c0-0.1,0-0.2,0.1-0.3
			c5.7-11,17.1-8.2,17.1-0.9V70c0,0.1,0,0.2-0.1,0.3c-0.6,0.8-1.3,1.6-2.1,2.2c-0.2,0.1-0.2,0.3-0.2,0.5c0.1,0.2,0.2,0.3,0.4,0.3
			c2.7,0,5.7,0,8.5,0c0.2,0,0.4-0.1,0.4-0.3s0-0.4-0.2-0.5C157.4,71.9,156.7,71.2,156.1,70.3z"/>
		<path class="st0" d="M99.4,72.5c-0.8-0.6-1.6-1.4-2.1-2.2c-0.1-0.1-0.1-0.2-0.1-0.3V17.3c0.4-0.6,0.9-1.2,1.5-1.6
			c0.2-0.1,0.2-0.3,0.1-0.5c-0.1-0.2-0.2-0.3-0.4-0.3c-0.7,0-1.3,0-1.9,0c-1.4,0-2.3,0-3.3,0c-0.6,0-1.1,0-1.9,0
			c-0.2,0-0.4,0.1-0.4,0.3c-0.1,0.2,0,0.4,0.1,0.5c0.6,0.5,1.1,1,1.5,1.6V70c0,0.1,0,0.2-0.1,0.3c-0.6,0.8-1.3,1.6-2.1,2.2
			c-0.2,0.1-0.2,0.3-0.2,0.5c0.1,0.2,0.2,0.3,0.4,0.3c0.9,0,1.8,0,2.6,0c1.3,0,2.3,0,3.3,0c0.8,0,1.6,0,2.6,0c0.2,0,0.4-0.1,0.4-0.3
			C99.6,72.8,99.6,72.6,99.4,72.5z"/>
		<path class="st0" d="M276.6,73.3c0.2,0,0.4-0.1,0.4-0.3s0-0.4-0.2-0.5c-0.8-0.6-1.6-1.4-2.1-2.2c-0.1-0.1-0.1-0.2-0.1-0.3V43.4
			c0-10.8-10.5-14.3-18.8-7.3c-1.2,1-1.9,2.1-2.8,3.2v-5.2c0-0.3-0.3-0.6-0.6-0.6c-2.3,0-3.2,0-5.2,0c-0.2,0-0.4,0.1-0.4,0.3
			c-0.1,0.2,0,0.4,0.1,0.5c0.6,0.4,1,0.9,1.4,1.5c0.1,0.1,0.1,0.2,0.1,0.3V70c0,0.1,0,0.2-0.1,0.3c-0.6,0.8-1.3,1.6-2.1,2.2
			c-0.2,0.1-0.2,0.3-0.2,0.5c0.1,0.2,0.2,0.3,0.4,0.3c2.1,0,3.5,0,5.9,0c0.3,0,0.6-0.3,0.6-0.6V48.2c0-0.4,0.1-0.9,0.3-1.3
			c5.5-12.3,16.9-13.2,16.9-3.6v29.4c0,0.3,0.3,0.6,0.6,0.6C273.1,73.3,274.5,73.3,276.6,73.3z"/>
		<g>
			<path class="st0" d="M349.6,52.9c0-28,29.6-28,29.6,0C379.2,80.9,349.6,80.9,349.6,52.9z M354,52.9c0,22,20.6,22,20.6,0
				C374.7,30.9,354,30.8,354,52.9z"/>
		</g>
		<path class="st0" d="M333,33.7L333,33.7c0-0.3,0-0.5,0-0.7c0-0.3-0.3-0.6-0.6-0.6c-2.6,0.2-5.3,0.9-8.4,3.5c-1,0.9-2,2.2-2.8,3.2
			v-5.1c0-0.2-0.1-0.3-0.2-0.4c-0.1-0.1-0.3-0.2-0.4-0.2c-2.3,0-3.2,0-5.2,0c-0.2,0-0.4,0.1-0.4,0.3s0,0.4,0.1,0.5
			c0.5,0.4,0.9,0.8,1.3,1.3c0.2,0.2,0.3,0.5,0.3,0.8v33.4c0,0.3-0.1,0.5-0.3,0.8c-0.6,0.7-1.2,1.4-2,2c-0.2,0.1-0.2,0.3-0.2,0.5
			c0.1,0.2,0.2,0.3,0.4,0.3c2.7,0,5.7,0,8.5,0c0.2,0,0.4-0.1,0.4-0.3c0.1-0.2,0-0.4-0.2-0.5c-0.8-0.6-1.4-1.2-2-2
			c-0.2-0.2-0.3-0.5-0.3-0.8v-22c0-0.2,0-0.3,0.1-0.5c2.7-6,6.2-9.1,9.6-10.1c0.5,0.4,0.9,0.8,1.3,1.3c0.1,0.2,0.3,0.2,0.5,0.1
			c0.2-0.1,0.3-0.2,0.3-0.4c0-0.8,0-1.7,0-2.5v0V33.7z"/>
		<path class="st0" d="M223.9,34.3c0.2-0.1,0.2-0.3,0.1-0.5c-0.1-0.2-0.2-0.3-0.4-0.3c-2,0-2.9,0-5.2,0c-0.3,0-0.6,0.3-0.6,0.6v2.2
			c-0.8-0.8-1.5-1.7-2.7-2.3c-8.6-4.7-21.6,0.4-21.6,19.2c0,18.1,13,23.8,21.6,20.1c1.2-0.5,2-1.2,2.7-2v6.5c0,11.3-14.3,12-16.8,3
			c0-0.2,0-0.4,0.1-0.5c0.5-0.6,1.1-1.2,1.8-1.7c0.2-0.1,0.2-0.3,0.2-0.5c-0.1-0.2-0.2-0.3-0.4-0.3c-4.4,0-5,0-5.9,0
			c-0.2,0-0.3,0.1-0.4,0.2c-0.1,0.1-0.2,0.3-0.2,0.4c0.6,17.6,26.1,17.4,26.1-0.6V36.1c0-0.1,0-0.2,0.1-0.3
			C222.9,35.2,223.4,34.7,223.9,34.3z M217.9,62.1c0,11.1-19.8,12.2-19.8-8.9c0-22.1,19.8-19.2,19.8-6.6V62.1z"/>
		<g>
			<path class="st0" d="M341.3,29.3c3.3,0,3.3-6,0-6C338,23.3,338,29.3,341.3,29.3z"/>
			<path class="st0" d="M343.5,70.2V34.1c0-0.3-0.3-0.6-0.6-0.6c-2.3,0-3.2,0-5.2,0c-0.2,0-0.4,0.1-0.4,0.3c-0.1,0.2,0,0.4,0.1,0.5
				c0.6,0.5,1.1,1,1.5,1.6v34.3c-0.6,0.9-1.4,1.7-2.3,2.3c-0.2,0.1-0.2,0.3-0.2,0.5c0.1,0.2,0.2,0.3,0.4,0.3c2.4,0,6.1,0,8.5,0
				c0.2,0,0.4-0.1,0.4-0.3c0.1-0.2,0-0.4-0.2-0.5C344.9,71.9,344.1,71.1,343.5,70.2z"/>
		</g>
		<g>
			<path class="st0" d="M235.4,29.3c3.3,0,3.3-6,0-6C232.2,23.3,232.2,29.3,235.4,29.3z"/>
			<path class="st0" d="M237.7,70.2V34.1c0-0.3-0.3-0.6-0.6-0.6c-2.3,0-3.2,0-5.2,0c-0.2,0-0.4,0.1-0.4,0.3c-0.1,0.2,0,0.4,0.1,0.5
				c0.6,0.5,1.1,1,1.5,1.6v34.3c-0.6,0.9-1.4,1.7-2.3,2.3c-0.2,0.1-0.2,0.3-0.2,0.5c0.1,0.2,0.2,0.3,0.4,0.3c2.4,0,6.1,0,8.5,0
				c0.2,0,0.4-0.1,0.4-0.3c0.1-0.2,0-0.4-0.2-0.5C239,71.9,238.3,71.1,237.7,70.2z"/>
		</g>
		<path class="st0" d="M189.3,73.3c0.2,0,0.4-0.1,0.4-0.3c0.1-0.2,0-0.4-0.2-0.5c-0.8-0.6-1.5-1.2-2-2c-0.1-0.2-0.2-0.4-0.2-0.6V43
			h0c0-13.6-21.8-14.1-22.4-0.6c0,0.2,0,0.3,0.2,0.4c0.1,0.1,0.3,0.2,0.4,0.2c2.3,0,3.2,0,5.2,0c0.2,0,0.4-0.1,0.4-0.3
			c0.1-0.2,0-0.4-0.1-0.5c-0.3-0.2-0.5-0.4-0.8-0.7c-0.3-0.3-0.4-0.8-0.2-1.2c2.6-5.4,12.9-4.3,12.9,2.7h0v5
			c-0.8-0.6-1.6-1.2-2.8-1.5c-7.6-2-18,2.2-18,13.8c0,13.6,10.3,16.3,18,12.5c1.2-0.6,2-1.4,2.8-2.2v1.7c0,0.6,0.5,1,1,1
			C185.1,73.3,184.5,73.3,189.3,73.3z M166.5,60.3c0-12.5,16.3-11.4,16.3-5.7v7.7C182.8,69.4,166.5,75.9,166.5,60.3z"/>
		<path class="st0" d="M307.9,73.3c0.2,0,0.4-0.1,0.4-0.3c0.1-0.2,0-0.4-0.2-0.5c-0.8-0.6-1.5-1.2-2-2c-0.1-0.2-0.2-0.4-0.2-0.6V43
			h0c0-13.6-21.8-14.1-22.4-0.6c0,0.2,0,0.3,0.2,0.4c0.1,0.1,0.3,0.2,0.4,0.2c2.3,0,3.2,0,5.2,0c0.2,0,0.4-0.1,0.4-0.3
			c0.1-0.2,0-0.4-0.1-0.5c-0.3-0.2-0.5-0.4-0.8-0.7c-0.3-0.3-0.4-0.8-0.2-1.2c2.6-5.4,12.9-4.3,12.9,2.7h0v5
			c-0.8-0.6-1.6-1.2-2.8-1.5c-7.6-2-18,2.2-18,13.8c0,13.6,10.3,16.3,18,12.5c1.2-0.6,2-1.4,2.8-2.2v1.7c0,0.6,0.5,1,1,1
			C303.7,73.3,303.1,73.3,307.9,73.3z M285.1,60.3c0-12.5,16.3-11.4,16.3-5.7v7.7C301.5,69.4,285.1,75.9,285.1,60.3z"/>
		<path class="st0" d="M408.3,66.9c0-0.2-0.1-0.4-0.3-0.4s-0.4,0-0.5,0.2c-0.6,0.8-1.4,1.6-2.2,2.1c-0.1,0.1-0.2,0.1-0.3,0.1h-17.7
			c-0.3,0-0.6-0.3-0.6-0.6v-2.2c0-6.8,20.7-5,20.7-20.1c0-17.8-23.9-17.1-24.3-3.3c0,0.1,0,0.2,0.1,0.3s0.2,0.1,0.3,0.1
			c1.3,0,2.4,0,5.4,0c0.2,0,0.4-0.1,0.4-0.3c0.1-0.2,0-0.4-0.1-0.5c-0.4-0.3-0.7-0.6-1-0.9c-0.1-0.2-0.2-0.4-0.1-0.6
			c2.4-5.8,14.9-5.7,14.9,5.3c0,11.9-20.7,8.5-20.7,20.1v6.7c0,0.3,0.3,0.6,0.6,0.6h25c0.3,0,0.6-0.3,0.6-0.6
			C408.3,68.6,408.3,69.2,408.3,66.9z"/>
	</g>
</g>
</svg>
