<?xml version="1.0" encoding="UTF-8"?>
<svg id="Capa_1" data-name="Capa 1" xmlns="http://www.w3.org/2000/svg" viewBox="0 0 327.6 69.09">
  <defs>
    <style>
      .cls-1 {
        fill: #494948;
        stroke-width: 0px;
      }
    </style>
  </defs>
  <path class="cls-1" d="m23.65,65.61c-6.73,0-15.16-1.72-18.4-9.65l-.27-.66.54-.47c.13-.11,3.1-2.78,1.69-5.68-.17-.34-15.77-34.8-.56-43.84C10.07-.5,22.23-.75,31.72.84c7.25,1.21,15.95,4.1,16.6,8.24.27,1.71-.77,3.26-3.07,4.62.96,2.71,2.62,9.29,2.01,11.83-.48,2.4-.25,2.74,2.69,6.9l.87,1.23c.65.92.76,2.03.29,2.97-.41.82-1.21,1.41-2.28,1.7.52.84,1.05,1.96.71,3.08-.12.41-.34.77-.66,1.07.29.38.53.87.52,1.48-.02.84-.51,1.62-1.47,2.34-.36.27-.33,1.23.05,1.91.39.7.49,1.95-.17,3.17-.66,1.22-2.24,2.73-5.98,2.98-5.4.36-5.81,1.2-6.33,2.26-.35.7-.78,1.57-1.97,2.45-.37.28-1.48,1.4.08,4.03l.69,1.17-1.32.31c-.38.09-4.39,1.01-9.32,1.01Zm-16.28-9.8c4.57,9.7,19.47,7.87,23.89,7.08-1.04-2.59-.2-4.47,1.07-5.42.81-.59,1.07-1.12,1.37-1.73.9-1.82,1.88-2.96,7.99-3.37,2.21-.15,3.75-.83,4.35-1.93.33-.61.25-1.12.19-1.24-.8-1.42-.83-3.49.49-4.49.53-.39.67-.68.67-.78,0-.2-.41-.54-.55-.65-.22-.18-.56-.45-.56-.96v-.67l.62-.26c.28-.12.63-.31.71-.56.15-.51-.49-1.47-.84-1.98-.39-.58-.76-1.12-.43-1.75l.28-.53.69-.04c1-.03,1.75-.33,1.99-.81.18-.37,0-.73-.14-.92l-.86-1.23c-3.04-4.31-3.67-5.2-3.01-8.49.59-2.45-1.63-9.88-2.14-11.3l-.82-.82,1.22-.63c1.12-.58,2.97-1.73,2.78-2.96-.32-2.03-5.67-5.03-14.95-6.58-9.37-1.56-20.6-1.08-23.12,3.7l-.14.26-.26.14c-12.29,6.94-2.06,34.83,1.13,41.37,1.65,3.39-.55,6.36-1.64,7.54Zm23.73-18.77l-.55-.13c-.3-.07-.6-.16-.9-.28-.3-.11-.58-.24-.86-.39l-.5-.26-.11-2.04c-.41-.39-.77-.84-1.05-1.33l-1.94-.5-.15-.56c-.18-.64-.27-1.31-.27-1.98v-.54s1.78-1.16,1.78-1.16c.04-.14.09-.29.14-.43.09-.25.21-.5.34-.74l-.54-1.96.4-.41c.52-.54,1.11-.99,1.76-1.35l.46-.26,1.92.98c.27-.06.54-.1.82-.12l1.48-1.5.54.11c.38.08.76.19,1.12.33.36.14.72.3,1.06.49l.48.27.11,2.11c.19.2.37.41.54.63l2.09.54.18.5c.25.7.39,1.44.43,2.18l.03.57-1.7,1.11c-.06.27-.14.53-.24.78-.05.14-.11.28-.17.41l.57,2.05-.36.41c-.44.5-.95.94-1.51,1.31l-.48.32-1.79-.91c-.54.18-1.1.28-1.67.3l-1.43,1.46Zm-.88-2.33s.08.03.13.05c.05.02.09.03.14.05l1.22-1.24.44.02c.59.02,1.17-.08,1.72-.31l.43-.18,1.53.77c.1-.08.19-.16.29-.25l-.48-1.74.2-.36c.09-.17.18-.34.24-.53.1-.27.17-.55.22-.83l.07-.44,1.45-.95c-.03-.19-.06-.37-.11-.56l-1.78-.46-.21-.34c-.2-.31-.44-.6-.72-.85l-.31-.28-.1-1.79c-.1-.04-.2-.09-.31-.13-.1-.04-.21-.07-.31-.11l-1.26,1.28h-.42c-.37,0-.74.06-1.1.16l-.38.11-1.64-.83c-.16.11-.31.22-.45.34l.46,1.67-.24.38c-.16.24-.29.5-.39.77-.07.19-.12.37-.17.56l-.09.4-1.51.99c.01.13.03.25.05.38l1.66.43.2.42c.26.53.63,1,1.08,1.37l.34.28.1,1.74Zm2.09-2.46c-1.35,0-2.52-1-2.69-2.37-.09-.72.1-1.43.55-2,.44-.57,1.08-.94,1.8-1.03.72-.09,1.43.1,2,.55s.94,1.08,1.03,1.8c.09.72-.1,1.43-.55,2-.44.57-1.08.94-1.8,1.03-.11.01-.23.02-.34.02Zm-.09-3.42c-.19.02-.36.12-.47.27-.12.15-.17.34-.14.52.05.39.41.67.8.62.19-.02.36-.12.47-.27.12-.15.17-.34.14-.52-.05-.39-.41-.67-.79-.62h0Zm-17.95,1.84l-.53-.2c-.44-.16-.86-.35-1.25-.56-.39-.21-.77-.44-1.16-.71l-.47-.32.22-3.01c-.62-.72-1.12-1.54-1.47-2.43l-2.75-1.09-.08-.57c-.14-.96-.14-1.93-.02-2.89l.07-.54,2.82-1.37c.11-.26.23-.51.35-.75.21-.4.46-.79.74-1.16l-.44-2.97.45-.36c.84-.68,1.78-1.22,2.78-1.63l.49-.2,2.64,1.78c.52-.06,1.04-.07,1.56-.03l2.44-1.93.52.18c.54.19,1.06.41,1.55.67.5.26.98.57,1.43.91l.44.33-.22,3.1c.32.41.61.85.85,1.31l2.96,1.18.11.52c.23,1.06.31,2.14.22,3.21l-.05.57-2.7,1.31c-.15.44-.33.86-.54,1.26h0c-.13.24-.27.48-.42.72l.45,3.1-.41.36c-.72.64-1.53,1.18-2.4,1.61l-.52.26-2.45-1.66c-.93.2-1.89.26-2.83.15l-2.37,1.87Zm-1.32-2.8c.16.1.32.19.49.28.16.09.33.17.5.24l2.15-1.7.44.07c.95.16,1.94.11,2.87-.15l.45-.12,2.23,1.51c.37-.21.72-.45,1.05-.71l-.41-2.81.24-.33c.19-.26.36-.54.51-.82.22-.42.4-.86.52-1.31l.12-.43,2.45-1.19c0-.52-.03-1.04-.11-1.55l-2.68-1.06-.17-.36c-.26-.55-.6-1.07-1-1.53l-.27-.31.2-2.81c-.24-.16-.48-.3-.73-.43-.25-.13-.5-.25-.77-.36l-2.21,1.75-.41-.05c-.61-.07-1.22-.06-1.83.04l-.39.06-2.39-1.61c-.47.22-.92.48-1.35.78l.39,2.7-.29.34c-.3.36-.57.75-.79,1.17-.15.28-.28.57-.39.88l-.14.38-2.55,1.24c-.03.42-.02.84,0,1.27l2.5.99.15.44c.31.92.82,1.77,1.49,2.46l.31.32-.2,2.73Zm4.67-4.08c-1.98,0-3.6-1.61-3.6-3.6s1.61-3.6,3.6-3.6,3.6,1.61,3.6,3.6-1.61,3.6-3.6,3.6Zm0-5.2c-.88,0-1.6.72-1.6,1.6s.72,1.6,1.6,1.6,1.6-.72,1.6-1.6-.72-1.6-1.6-1.6Z"/>
  <g>
    <path class="cls-1" d="m308.6,25.95c-.24,0-.43.19-.43.43,0,.97,0,1.32,0,3.83,0,.14.09.27.22.32s.28,0,.37-.11c.33-.42.7-.77,1.11-1.07.07-.05.16-.08.25-.08h13.72c.24,0,.43.19.43.43v1.13c0,.07-.02.14-.05.2l-19.84,36.6c-.07.13-.07.29,0,.42s.22.21.37.21h4.37c.14,0,.27-.09.32-.23s0-.29-.12-.37c-.42-.31-.78-.61-.82-.65l19.04-35.13c.03-.06.05-.13.05-.2v-5.31c0-.24-.19-.43-.43-.43h-18.57Z"/>
    <path class="cls-1" d="m117.22,53.39c-.05-.07-.08-.16-.08-.25v-19.84c0-7.18-8.41-10.72-14.82-5.95-.87.66-1.48,1.43-2.1,2.23-.2-.55-.45-1.19-.87-1.72-2.63-3.43-7.91-3.76-12.38-.02-.86.69-1.45,1.52-2.08,2.4v-3.86c0-.11-.05-.22-.13-.3s-.19-.13-.3-.13c-1.69,0-2.38,0-3.85,0-.14,0-.27.09-.32.23s0,.28.11.37c.42.33.77.7,1.07,1.11.05.07.08.16.08.25v25.23c0,.09-.03.18-.08.25-.44.62-.97,1.17-1.6,1.63-.12.09-.16.24-.12.37s.17.23.32.23h6.3c.14,0,.27-.09.32-.23s0-.29-.12-.37c-.63-.46-1.16-1.01-1.6-1.63-.05-.07-.08-.16-.08-.25v-16.63c0-.05,0-.11.03-.15,3.88-9.5,12.76-10.27,12.76-3.06v19.84c0,.09-.03.18-.08.25-.44.62-.97,1.17-1.6,1.63-.12.09-.16.24-.12.37s.17.23.32.23h6.3c.14,0,.27-.09.32-.23s0-.29-.12-.37c-.63-.46-1.16-1.01-1.6-1.63-.05-.07-.08-.16-.08-.25v-18.97c0-.07.02-.14.05-.2,4.28-8.2,12.74-6.14,12.74-.67v19.84c0,.09-.03.18-.08.25-.44.62-.97,1.17-1.6,1.63-.12.09-.16.24-.12.37s.17.23.32.23h6.3c.14,0,.27-.09.32-.23s0-.29-.12-.37c-.63-.46-1.16-1.01-1.6-1.63Z"/>
    <path class="cls-1" d="m75.01,55.02c-.63-.46-1.16-1.01-1.6-1.63-.05-.07-.08-.16-.08-.25V13.92c.31-.46.69-.87,1.15-1.23.11-.09.16-.24.11-.37-.05-.13-.17-.22-.32-.22h-5.23c-.14,0-.27.09-.32.22-.05.13,0,.28.11.37.46.36.84.77,1.15,1.23v39.22c0,.09-.03.17-.08.25-.44.62-.97,1.17-1.6,1.63-.12.09-.16.24-.12.37.04.14.17.23.32.23h1.91c.97,0,1.73,0,2.47,0h1.91c.14,0,.27-.09.32-.23.04-.14,0-.29-.12-.37Z"/>
    <path class="cls-1" d="m206.97,55.62c.14,0,.27-.09.32-.23s0-.29-.12-.37c-.63-.46-1.16-1.01-1.6-1.63-.05-.07-.08-.16-.08-.25v-19.84c0-8.03-7.83-10.67-14.03-5.47-.86.72-1.45,1.54-2.09,2.41v-3.86c0-.24-.19-.43-.43-.43-1.69,0-2.38,0-3.85,0-.14,0-.27.09-.32.23s0,.28.11.37c.42.33.77.7,1.07,1.11.05.07.08.16.08.25v25.23c0,.09-.03.18-.08.25-.44.62-.97,1.17-1.6,1.63-.12.09-.16.24-.12.37s.17.23.32.23c1.58,0,2.63,0,4.38,0,.24,0,.43-.19.43-.43v-18.27c0-.33.05-.67.19-.97,4.13-9.15,12.6-9.84,12.6-2.66v21.89c0,.24.19.43.43.43,1.76,0,2.8,0,4.38,0Z"/>
    <path class="cls-1" d="m261.31,40.39c0-20.86,22.03-20.86,22.03,0s-22.03,20.86-22.03,0Zm3.33,0c0,16.4,15.37,16.41,15.37,0s-15.37-16.41-15.37,0Z"/>
    <path class="cls-1" d="m248.99,26.11h0v-.53c0-.24-.19-.43-.43-.43-1.97.14-3.93.68-6.27,2.64-.76.64-1.46,1.63-2.08,2.4v-3.82c0-.11-.05-.22-.13-.3-.08-.08-.19-.13-.3-.13-1.69,0-2.38,0-3.85,0-.14,0-.27.09-.32.23-.05.13,0,.28.11.37.37.29.68.6.95.95.13.17.2.37.2.59v24.89c0,.21-.07.41-.19.57-.42.56-.91,1.05-1.49,1.48-.12.09-.16.24-.12.37.04.14.17.23.32.23h6.3c.14,0,.27-.09.32-.23.04-.14,0-.29-.12-.37-.58-.42-1.07-.92-1.49-1.48-.12-.17-.19-.37-.19-.57v-16.4c0-.12.02-.24.07-.35,2-4.45,4.63-6.81,7.15-7.55.35.27.68.59.97.97.09.11.24.16.37.11.13-.05.23-.17.23-.32v-1.87h0v-1.44Z"/>
    <path class="cls-1" d="m167.75,26.54c.11-.09.16-.24.11-.37s-.17-.23-.32-.23c-1.47,0-2.16,0-3.85,0-.24,0-.43.19-.43.43v1.67c-.59-.59-1.15-1.25-2.03-1.72-6.41-3.47-16.05.31-16.05,14.3s9.66,17.71,16.05,14.94c.93-.37,1.47-.92,2.03-1.48v4.83c0,8.43-10.65,8.97-12.48,2.24-.04-.13,0-.28.08-.38.38-.47.81-.89,1.31-1.25.12-.09.16-.24.12-.37s-.17-.23-.32-.23c-3.3,0-3.72,0-4.38,0-.12,0-.23.05-.31.13s-.12.2-.12.31c.42,13.11,19.42,12.95,19.42-.44v-31.02c0-.09.03-.18.08-.25.3-.41.65-.78,1.07-1.11Zm-4.49,20.73c0,8.23-14.75,9.07-14.75-6.64s14.75-14.31,14.75-4.9v11.54Z"/>
    <g>
      <path class="cls-1" d="m255.14,22.8c2.43,0,2.43-4.46,0-4.46s-2.43,4.46,0,4.46Z"/>
      <path class="cls-1" d="m256.81,53.28v-26.9c0-.24-.19-.43-.43-.43-1.69,0-2.38,0-3.85,0-.14,0-.27.09-.32.23s0,.28.11.37c.46.36.84.77,1.15,1.23v25.51c-.46.67-1.01,1.25-1.68,1.74-.12.09-.16.24-.12.37s.17.23.32.23h6.3c.14,0,.27-.09.32-.23s0-.29-.12-.37c-.67-.49-1.22-1.08-1.68-1.74Z"/>
    </g>
    <g>
      <path class="cls-1" d="m176.32,22.8c2.43,0,2.43-4.46,0-4.46s-2.43,4.46,0,4.46Z"/>
      <path class="cls-1" d="m177.99,53.28v-26.9c0-.24-.19-.43-.43-.43-1.69,0-2.38,0-3.85,0-.14,0-.27.09-.32.23s0,.28.11.37c.46.36.84.77,1.15,1.23v25.51c-.46.67-1.01,1.25-1.68,1.74-.12.09-.16.24-.12.37s.17.23.32.23h6.3c.14,0,.27-.09.32-.23s0-.29-.12-.37c-.67-.49-1.22-1.08-1.68-1.74Z"/>
    </g>
    <path class="cls-1" d="m141.92,55.6c.14,0,.27-.09.32-.23s0-.29-.12-.37c-.59-.43-1.08-.93-1.5-1.49-.1-.13-.15-.3-.15-.46v-19.99h0c0-10.1-16.24-10.53-16.7-.44,0,.12.04.23.12.31s.19.13.31.13c1.69,0,2.38,0,3.85,0,.14,0,.27-.09.32-.22s0-.28-.11-.37c-.21-.16-.4-.33-.57-.51-.23-.23-.28-.58-.14-.87,1.92-4.02,9.61-3.23,9.61,1.98h0v3.72c-.58-.45-1.2-.88-2.1-1.09-5.63-1.47-13.4,1.61-13.4,10.25,0,10.11,7.67,12.17,13.4,9.28.89-.44,1.49-1.02,2.1-1.63v1.25c0,.43.35.78.78.78.9,0,.45,0,4.01,0Zm-16.96-9.67c0-9.28,12.17-8.46,12.17-4.21v5.77c0,5.24-12.17,10.08-12.17-1.56Z"/>
    <path class="cls-1" d="m230.27,55.6c.14,0,.27-.09.32-.23s0-.29-.12-.37c-.59-.43-1.08-.93-1.5-1.49-.1-.13-.15-.3-.15-.46v-19.99h0c0-10.1-16.24-10.53-16.7-.44,0,.12.04.23.12.31s.19.13.31.13c1.69,0,2.38,0,3.85,0,.14,0,.27-.09.32-.22s0-.28-.11-.37c-.21-.16-.4-.33-.57-.51-.23-.23-.28-.58-.14-.87,1.92-4.02,9.61-3.23,9.61,1.98h0v3.72c-.58-.45-1.2-.88-2.1-1.09-5.63-1.47-13.4,1.61-13.4,10.25,0,10.11,7.67,12.17,13.4,9.28.89-.44,1.49-1.02,2.1-1.63v1.25c0,.43.35.78.78.78.9,0,.45,0,4.01,0Zm-16.96-9.67c0-9.28,12.17-8.46,12.17-4.21v5.77c0,5.24-12.17,10.08-12.17-1.56Z"/>
    <path class="cls-1" d="m305.03,50.81c0-.14-.09-.27-.23-.32s-.29,0-.37.12c-.46.63-1.01,1.16-1.63,1.6-.07.05-.16.08-.25.08h-13.2c-.24,0-.43-.19-.43-.43v-1.66c0-5.04,15.42-3.7,15.42-14.94,0-13.26-17.77-12.75-18.08-2.45,0,.07.03.14.08.2s.12.08.19.08c.98,0,1.76,0,4.01,0,.14,0,.27-.09.32-.22s0-.28-.11-.37c-.28-.22-.53-.45-.75-.7-.11-.12-.14-.3-.07-.45,1.82-4.3,11.09-4.26,11.09,3.92,0,8.89-15.42,6.33-15.42,14.94v4.99c0,.24.19.43.43.43h18.58c.24,0,.43-.19.43-.43,0-3.1,0-2.66,0-4.38Z"/>
  </g>
</svg>